<svg width="47" height="47" viewBox="0 0 47 47" fill="none" xmlns="http://www.w3.org/2000/svg">
<circle cx="23.2886" cy="23.2886" r="22.7886" fill="white" stroke="black"/>
<path d="M11.9581 16.9563C12.6445 13.2237 16.0887 11.5186 18.1345 10.977C20.2246 10.264 24.9744 9.6458 27.2531 12.8775C29.5318 16.1093 29.9573 18.9979 29.8852 20.0383C30.0612 19.5452 30.2273 18.8124 30.3287 17.7566C30.588 15.0556 32.5247 14.2535 33.7364 13.9581C34.5195 13.7742 35.787 13.8112 36.8455 14.6082C37.6693 15.2285 38.3665 16.309 38.6102 18.1041C39.1672 22.2057 36.5376 24.8174 35.1532 25.6106C35.7998 26.0634 36.2399 26.6664 36.529 27.3258C37.1543 28.7518 37.0731 30.4417 36.8455 31.4472C36.5717 32.8594 35.226 35.8403 32.0338 36.4662C28.8417 37.0921 26.5576 35.6995 25.8146 34.925C23.4698 39.9279 20.1051 40.5387 18.4475 40.6189C17.1939 40.6795 15.5314 40.0673 14.4081 38.9717C13.81 38.3882 13.3648 37.6677 13.2157 36.8386C13.1422 36.4302 13.0922 36.0614 13.0659 35.7247C11.8346 36.0169 10.7806 35.0864 9.97452 35.0058C8.86851 34.8952 8.44075 35.181 8.1633 35.3909C7.96387 34.9394 7.89075 34.4803 7.89075 34.082C7.89075 32.5064 8.41541 31.5015 11.2133 30.3733C13.2672 29.5451 13.4864 26.9218 12.99 25.4627C12.4485 24.1841 11.3035 20.5155 11.9581 16.9563Z" fill="#FBE783"/>
<path d="M36.9046 15.2689C36.8911 15.2689 36.8776 15.2689 36.8598 15.2689C36.7194 15.2689 36.6466 15.6048 36.5873 15.7575C36.5371 15.8872 36.4457 16.0083 36.3148 16.2262C36.1603 16.4835 36.0783 16.5524 36.0278 16.6488C36.0051 16.692 35.9602 16.8848 35.8835 17.1767C35.8303 17.3792 35.8238 17.7146 35.8034 18.1824C35.7861 18.5775 35.7543 18.835 35.7596 18.9675C35.7678 19.175 35.8037 19.4295 35.8201 19.5769C35.849 19.8363 35.8779 19.9964 35.9114 20.467C35.9293 20.7188 35.9719 20.8687 35.9867 21.2074C36.0004 21.5223 36.0002 22.1285 35.9871 22.5033C35.9643 23.1607 35.8723 23.2978 35.7748 23.4944C35.6621 23.7215 35.6155 23.9177 35.5511 24.0838C35.469 24.2955 35.4529 24.3955 35.3963 24.4911C35.3776 24.5227 35.359 24.5673 35.3386 24.6048C35.3012 24.6738 35.5425 24.481 36.1353 23.89C36.4851 23.5413 36.845 23.0096 37.0467 22.7291C37.2483 22.4487 37.258 22.4143 37.3225 22.2616C37.3871 22.109 37.5063 21.8393 37.5936 21.6185C37.681 21.3977 37.7329 21.2339 37.7906 21.0256C37.8483 20.8173 37.9101 20.5694 37.9557 20.3317C38.0014 20.0939 38.0291 19.8737 38.0434 19.5142C38.0576 19.1547 38.0576 18.6626 38.0305 18.2992C38.0034 17.9359 37.9493 17.7163 37.9174 17.5749C37.8855 17.4335 37.8774 17.3771 37.8279 17.2054C37.7783 17.0337 37.6875 16.7485 37.564 16.4589C37.4405 16.1693 37.2872 15.884 37.2055 15.7478C37.1238 15.6115 37.1183 15.6329 37.1155 15.9645C37.1127 16.2962 37.1127 16.9374 37.1267 17.3849C37.1408 17.8324 37.169 18.0668 37.1997 18.2434C37.2304 18.4199 37.2628 18.5316 37.2935 18.7063C37.3242 18.881 37.3522 19.1154 37.3666 19.7809C37.381 20.4464 37.381 21.5358 37.3652 22.148C37.3494 22.7602 37.3177 22.862 37.2947 22.9272C37.2717 22.9924 37.2584 23.018 37.2301 23.0067C37.2018 22.9954 37.1589 22.9466 37.1303 22.8822C37.1018 22.8177 37.0888 22.7392 37.0431 21.9302C36.9974 21.1212 36.9193 19.5842 36.8761 18.7815C36.8317 17.9568 36.8209 17.8478 36.8175 17.7018C36.8154 17.6129 36.7767 17.5351 36.7322 17.4724C36.7174 17.4515 36.6926 17.4796 36.6796 17.5079C36.6522 17.5677 36.641 17.8736 36.6161 18.3215C36.6028 18.502 36.5882 18.5873 36.5807 18.6425C36.5732 18.6978 36.5732 18.7204 36.5732 18.7438" stroke="#F29DBE" stroke-width="1.24378" stroke-linecap="round"/>
<path d="M36.1871 28.1591C36.1937 28.1558 36.1988 28.1297 36.1914 28.0872C36.173 27.9819 35.9761 27.9724 35.6425 27.966C35.4295 27.962 35.288 28.0138 35.1541 28.0356C35.0475 28.0529 34.8812 28.1435 34.7167 28.2289C34.6673 28.2545 34.5989 28.2756 34.5464 28.2894C34.4032 28.3272 35.0849 27.9558 35.2945 27.8607C35.3995 27.8131 34.9213 27.9045 34.7267 27.9561C34.548 28.0035 34.3817 28.087 34.2887 28.1616C34.1972 28.235 34.05 28.4499 33.8925 28.6681C33.777 28.8282 33.7294 28.9114 33.689 29.022C33.6433 29.1472 33.6338 29.2448 33.5904 29.3591C33.5423 29.4858 33.5285 29.6288 33.4792 29.8747C33.4418 30.0614 33.3871 30.3107 33.3541 30.5104C33.3478 30.5483 33.3368 30.5826 33.3277 30.8202C33.3186 31.0577 33.3111 31.4972 33.3156 31.7554C33.3212 32.0776 33.3573 32.1886 33.3706 32.3193C33.3916 32.5258 33.4133 32.8007 33.4167 33.0403C33.4205 33.3017 33.4213 33.6298 33.4059 33.7794C33.3756 34.075 33.3115 34.1683 33.2318 34.4195C33.1925 34.5433 33.1645 34.6713 33.1176 34.7983C33.067 34.9354 32.9592 35.1755 32.8811 35.3151C32.8342 35.3989 32.7291 35.4991 32.6488 35.5877C32.6384 35.5991 32.7528 35.5354 33.0795 35.2633C33.3348 35.0507 33.757 34.6694 33.9919 34.4649C34.2547 34.236 34.3589 34.1489 34.4764 34.0341C34.5464 33.9656 34.7097 33.7978 34.9579 33.5091C35.0745 33.3737 35.1634 33.2536 35.281 33.0798C35.3986 32.9059 35.54 32.6802 35.7084 32.3365C35.8768 31.9928 36.068 31.5379 36.1745 31.2753C36.303 30.9586 36.3215 30.8472 36.3413 30.7419C36.4033 30.4122 36.4666 29.9923 36.478 29.869C36.4897 29.7423 36.5193 29.5933 36.5204 28.8778C36.5207 28.6883 36.4479 28.5943 36.3706 28.4988C36.2853 28.3933 35.9991 28.3996 35.7275 28.4575C35.3219 28.544 35.1317 28.9189 34.9423 29.1762C34.7859 29.3888 34.779 29.4987 34.7463 29.6158C34.7365 29.6509 34.7208 29.6905 34.6151 30.1342C34.5094 30.5779 34.3132 31.4241 34.1919 31.9972C34.0705 32.5702 34.03 32.8444 33.9919 33.0558C33.894 33.5995 33.869 33.7697 33.8762 33.921C33.8776 33.9519 33.9212 33.9593 33.9492 33.9576C33.9773 33.9558 34.0025 33.9407 34.0898 33.8319C34.177 33.7231 34.3256 33.5212 34.7147 32.715C35.1039 31.9089 35.729 30.5046 36.0397 29.7747C36.3503 29.0448 36.3276 29.0317 36.2919 29.0363C36.0918 29.1263 35.9045 29.2452 35.7475 29.494C35.6622 29.6774 35.5149 30.0209 35.3453 30.4039" stroke="#F29DBE" stroke-width="1.24378" stroke-linecap="round"/>
<path d="M23.4203 21.5204C23.41 21.5505 23.3865 21.7724 23.3439 22.0048C23.3074 22.2042 23.0648 22.3828 22.9093 22.4676C22.5405 22.6686 22.2344 22.7295 22.1238 22.7424C21.9092 22.7675 21.6043 22.7732 20.9734 22.7796C20.7706 22.7817 20.6123 22.6854 20.4339 22.5513C20.2087 22.382 20.1983 22.2402 20.1838 22.1173C20.1601 21.9178 20.5874 21.618 20.883 21.4299C21.0481 21.3249 21.2125 21.3246 21.5412 21.3101C22.1533 21.283 22.5878 21.3122 22.6411 21.3206C22.6914 21.3281 22.7389 21.3369 22.7862 21.3456C22.8107 21.3492 22.8365 21.3509 22.8948 21.3633" stroke="#F4DFD2" stroke-width="1.55473" stroke-linecap="round"/>
<path d="M16.1373 32.0176C16.0743 32.0358 15.936 32.112 15.6973 32.2905C15.5374 32.41 15.3114 32.6045 15.1558 32.7454C15.0002 32.8864 14.925 32.9721 14.8229 33.1066C14.7207 33.2412 14.5939 33.422 14.4557 33.6298C14.1671 34.064 14.0059 34.338 13.9771 34.4052C13.9509 34.4663 13.9317 34.5532 13.9095 34.6633C13.8878 34.7717 13.8197 35.0426 13.7094 35.4213C13.6314 35.6893 13.6343 35.8357 13.6326 35.8957C13.6257 36.1496 13.7075 36.6098 13.7684 36.7458C13.8457 36.9185 13.844 37.1185 13.8771 37.1314C13.8986 37.1398 13.9273 37.0791 14.0389 36.8681C14.1505 36.6572 14.3434 36.2792 14.4643 36.0302C14.5853 35.7812 14.6283 35.6728 14.7992 35.3712C14.9701 35.0697 15.2675 34.5784 15.4753 34.2606C15.7753 33.8018 15.922 33.6671 15.9649 33.6399C16.1994 33.4915 16.5183 33.2351 16.5929 33.0389C16.6326 32.9343 16.6129 32.6793 16.5353 32.3469C16.5213 32.2869 16.512 32.258 16.509 32.3574C16.499 32.6864 16.5297 32.9828 16.5672 33.0856C16.5913 33.1517 16.587 33.2644 16.5826 33.4246C16.5787 33.5646 16.4399 33.8113 16.232 34.1116C15.9335 34.4226 15.6854 34.6359 15.5658 34.7499C15.4768 34.8301 15.3302 34.9557 15.1582 35.095" stroke="#F29DBE" stroke-width="1.24378" stroke-linecap="round"/>
<path d="M12.8876 36.4729C12.868 36.4729 12.686 36.4747 12.3287 36.4633C12.1428 36.4574 11.9492 36.4218 11.7927 36.3909C11.6362 36.36 11.523 36.3274 11.3288 36.2898C11.1346 36.2522 10.8629 36.2106 10.587 36.1468C10.0339 36.0188 9.73752 35.8994 9.69299 35.8772C9.59998 35.8308 9.35196 35.7662 9.11241 35.7012C9.03422 35.68 8.95812 35.6524 8.91113 35.6413C8.90579 35.6401 8.93758 35.6503 9.37592 35.81C9.81426 35.9698 10.6581 36.2793 11.2116 36.4706C11.7651 36.6619 12.0028 36.7254 12.1402 36.7597C12.3063 36.8011 12.372 36.8104 12.5981 36.8271C12.7903 36.8334 13.1397 36.8352 13.3858 36.8474C13.6318 36.8596 13.7639 36.8821 13.9295 36.9054" stroke="#F29DBE" stroke-width="1.24378" stroke-linecap="round"/>
<path d="M13.2157 37.5567C10.0543 37.6871 8.68184 36.5648 8.1633 35.3909M18.0137 31.4472C16.9896 31.2716 15.321 31.4472 14.4081 32.277C13.37 33.2208 12.9388 34.0947 13.0659 35.7247M26.8445 32.1908C26.5343 33.2235 26.1873 34.1297 25.8146 34.925M25.8146 34.925C23.4698 39.9279 20.1051 40.5387 18.4475 40.6189C17.1939 40.6795 15.5314 40.0673 14.4081 38.9717M25.8146 34.925C26.5576 35.6995 28.8417 37.0921 32.0338 36.4662C35.226 35.8403 36.5717 32.8594 36.8455 31.4472C37.0731 30.4417 37.1543 28.7518 36.529 27.3258M30.1015 26.1693C30.1015 26.1693 32.1353 24.4775 34.1529 25.1074M29.3056 20.9208C29.4501 20.8748 29.6747 20.6281 29.8852 20.0383M35.1532 25.6106C34.9549 25.4717 34.7371 25.3469 34.4984 25.2389C34.3835 25.187 34.2682 25.1434 34.1529 25.1074M35.1532 25.6106C36.5376 24.8174 39.1672 22.2057 38.6102 18.1041C38.3665 16.309 37.6693 15.2285 36.8455 14.6082M35.1532 25.6106C35.7998 26.0634 36.2399 26.6664 36.529 27.3258M36.8455 14.6082C35.787 13.8112 34.5195 13.7742 33.7364 13.9581C32.5247 14.2535 30.588 15.0556 30.3287 17.7566C30.2273 18.8124 30.0612 19.5452 29.8852 20.0383M36.8455 14.6082C35.8043 14.9629 34.008 16.7219 35.1532 20.9208C35.6161 22.6177 34.9635 25.4613 34.1529 25.1074M29.8852 20.0383C29.9573 18.9979 29.5318 16.1093 27.2531 12.8775C24.9744 9.6458 20.2246 10.264 18.1345 10.977C16.0887 11.5186 12.6445 13.2237 11.9581 16.9563C11.3035 20.5155 12.4485 24.1841 12.99 25.4627C13.4864 26.9218 13.8983 28.864 11.1531 30.2329C8.45331 31.5791 7.89075 32.5064 7.89075 34.082C7.89075 34.4803 7.96387 34.9394 8.1633 35.3909M36.529 27.3258C35.3002 26.8222 32.7796 26.6314 32.5284 29.8971C32.3714 31.9388 33.361 34.1543 31.3247 36.4662M16.0731 31.5043C17.0702 31.9856 18.541 33.6214 15.9769 35.3909C14.5643 36.3658 14.2029 38.7594 14.4081 38.9717M14.4081 38.9717C13.81 38.3882 13.3648 37.6677 13.2157 36.8386C13.1422 36.4302 13.0922 36.0614 13.0659 35.7247M8.1633 35.3909C8.44075 35.181 8.86851 34.8952 9.97452 35.0058C10.7806 35.0864 11.8346 36.0169 13.0659 35.7247" stroke="black" stroke-width="0.932837" stroke-linecap="round"/>
<path d="M24.9824 6.01081C24.5142 5.73638 23.5632 6.52873 23.1462 6.95921C21.8817 6.86505 19.1226 7.07222 18.2025 8.65421C17.0523 10.6317 18.9893 13.0127 23.0048 13.4365C25.744 13.7256 26.8982 12.1628 26.9599 11.4792C27.1818 9.01742 24.8187 8.53231 24.599 8.45243C24.3794 8.37255 25.4506 6.28525 24.9824 6.01081Z" fill="#E54050" stroke="black" stroke-width="0.932837" stroke-linecap="round"/>
<path d="M20.6227 22.1851C20.6227 22.1851 21.293 22.2204 21.7201 22.1851C22.1362 22.1506 22.775 22.0115 22.775 22.0115M19.2883 22.5417C19.2024 21.7266 19.665 20.4594 21.2764 20.2397C23.2906 19.9651 24.023 21.0899 24.1407 21.3907C24.2585 21.6915 24.5985 23.4441 22.035 23.8757C19.9842 24.221 19.3494 23.1302 19.2883 22.5417Z" stroke="black" stroke-width="0.932837" stroke-linecap="round"/>
<path d="M17.7777 19.3925C17.6363 18.8603 17.6468 18.2266 18.1635 18.0363C18.7061 17.8364 19.1517 18.3954 19.333 18.9446C19.5189 19.5081 19.4699 20.2438 18.8975 20.4003C18.33 20.5554 17.9288 19.9611 17.7777 19.3925Z" fill="black"/>
<path d="M22.4387 18.2536C22.2973 17.7214 22.3078 17.0877 22.8245 16.8974C23.3671 16.6975 23.8127 17.2565 23.994 17.8057C24.1799 18.3691 24.1309 19.1049 23.5585 19.2614C22.991 19.4165 22.5898 18.8222 22.4387 18.2536Z" fill="black"/>
</svg>
