<svg width="20" height="20" viewBox="0 0 20 20" fill="none" xmlns="http://www.w3.org/2000/svg">
<circle cx="10" cy="10" r="10" fill="#D9D9D9"/>
<path d="M9.32059 10.6793L8.02762 10.0986C7.98379 10.0766 7.96188 10.0438 7.96188 9.99994C7.96188 9.95611 7.98379 9.92324 8.02762 9.90133L9.32059 9.30963L9.90133 8.02762C9.92324 7.98379 9.95611 7.96188 9.99994 7.96188C10.0438 7.96188 10.0766 7.98379 10.0986 8.02762L10.6903 9.30963L11.9723 9.90133C12.0161 9.92324 12.038 9.95611 12.038 9.99994C12.038 10.0438 12.0161 10.0766 11.9723 10.0986L10.6903 10.6793L10.0986 11.9723C10.0766 12.0161 10.0438 12.038 9.99994 12.038C9.95611 12.038 9.92324 12.0161 9.90133 11.9723L9.32059 10.6793ZM9.99994 14.8212C9.1818 14.8212 8.42939 14.6349 7.74273 14.2624C7.05607 13.8898 6.49359 13.3931 6.0553 12.7722V13.5063C6.0553 13.6305 6.0133 13.7346 5.92929 13.8186C5.84528 13.9026 5.74119 13.9446 5.617 13.9446C5.49282 13.9446 5.38873 13.9026 5.30472 13.8186C5.22071 13.7346 5.17871 13.6305 5.17871 13.5063V11.7531C5.17871 11.6289 5.22071 11.5248 5.30472 11.4408C5.38873 11.3568 5.49282 11.3148 5.617 11.3148H7.37018C7.49436 11.3148 7.59846 11.3568 7.68246 11.4408C7.76647 11.5248 7.80847 11.6289 7.80847 11.7531C7.80847 11.8773 7.76647 11.9814 7.68246 12.0654C7.59846 12.1494 7.49436 12.1914 7.37018 12.1914H6.7237C7.07433 12.7174 7.53637 13.141 8.1098 13.4625C8.68324 13.7839 9.31328 13.9446 9.99994 13.9446C11.0299 13.9446 11.9157 13.6013 12.6571 12.9146C13.3985 12.2279 13.8204 11.3842 13.9227 10.3835C13.9373 10.2666 13.9884 10.1734 14.0761 10.104C14.1637 10.0346 14.266 9.99994 14.3829 9.99994C14.5071 9.99994 14.613 10.0383 14.7006 10.115C14.7883 10.1917 14.8248 10.2848 14.8102 10.3944C14.7591 11.0153 14.5984 11.5942 14.3281 12.1311C14.0578 12.6681 13.7072 13.1356 13.2762 13.5337C12.8452 13.9318 12.3503 14.2459 11.7915 14.476C11.2326 14.7061 10.6355 14.8212 9.99994 14.8212ZM9.99994 6.0553C8.96995 6.0553 8.08423 6.39863 7.34279 7.08529C6.60134 7.77195 6.17948 8.61567 6.07721 9.61644C6.0626 9.73331 6.01147 9.82645 5.92381 9.89585C5.83615 9.96525 5.73388 9.99994 5.617 9.99994C5.49282 9.99994 5.3869 9.96159 5.29924 9.88489C5.21158 9.80819 5.17506 9.71505 5.18967 9.60548C5.2408 8.98456 5.40151 8.40565 5.67179 7.86874C5.94207 7.33183 6.29271 6.86432 6.7237 6.4662C7.15469 6.06808 7.64959 5.75397 8.20842 5.52387C8.76724 5.29376 9.36442 5.17871 9.99994 5.17871C10.8181 5.17871 11.5705 5.36499 12.2572 5.73754C12.9438 6.11009 13.5063 6.60682 13.9446 7.22773V6.49359C13.9446 6.36941 13.9866 6.26531 14.0706 6.18131C14.1546 6.0973 14.2587 6.0553 14.3829 6.0553C14.5071 6.0553 14.6112 6.0973 14.6952 6.18131C14.7792 6.26531 14.8212 6.36941 14.8212 6.49359V8.24677C14.8212 8.37095 14.7792 8.47505 14.6952 8.55905C14.6112 8.64306 14.5071 8.68506 14.3829 8.68506H12.6297C12.5055 8.68506 12.4014 8.64306 12.3174 8.55905C12.2334 8.47505 12.1914 8.37095 12.1914 8.24677C12.1914 8.12258 12.2334 8.01849 12.3174 7.93448C12.4014 7.85048 12.5055 7.80847 12.6297 7.80847H13.2762C12.9256 7.28252 12.4635 6.85884 11.8901 6.53742C11.3167 6.21601 10.6866 6.0553 9.99994 6.0553Z" fill="black"/>
</svg>
