<svg width="73" height="73" viewBox="0 0 73 73" fill="none" xmlns="http://www.w3.org/2000/svg">
<circle cx="36.0625" cy="36.0625" r="35.0226" transform="matrix(-1 0 0 1 72.1251 0)" stroke="#ABE0F0" stroke-width="2.07996"/>
<mask id="mask0_898_1045" style="mask-type:alpha" maskUnits="userSpaceOnUse" x="0" y="0" width="73" height="73">
<circle cx="36.0625" cy="36.0625" r="36.0625" transform="matrix(-1 0 0 1 72.1251 0)" fill="#D9D9D9"/>
</mask>
<g mask="url(#mask0_898_1045)">
<path d="M53.5343 23.2937C54.6508 23.724 56.0667 20.9542 57.603 21.6978C59.6718 22.6992 54.7852 26.5356 56.3975 27.5959C58.0099 28.6563 60.9906 30.8522 60.2206 34.2177C59.3732 37.9215 55.0194 40.7568 48.5026 38.0621C38.3416 33.8605 37.5018 27.0337 41.199 23.604C44.5995 20.4497 52.4178 22.8634 53.5343 23.2937Z" stroke="#ABE0F0" stroke-width="2.14511" stroke-linecap="round"/>
<path d="M39.2092 28.9008C39.2092 28.9008 33.0363 28.8836 27.1035 33.1612C21.1706 37.4389 19.1927 44.966 18.5552 47.7578C16.9806 54.6537 18.439 66.5213 20.8901 71.3778M58.9664 37.3127C60.5125 39.485 62.0914 45.1049 62.2569 50.4873C62.4224 55.8697 60.8335 64.4961 60.8335 64.4961" stroke="#ABE0F0" stroke-width="2.14511" stroke-linecap="round"/>
<path d="M39.0616 41.2188C39.8641 41.5588 41.7817 41.7751 42.8261 41.6531" stroke="#ABE0F0" stroke-width="2.14511" stroke-linecap="round"/>
<path d="M32.289 40.3523C31.419 40.4046 29.6657 40.3523 28.4802 39.7407" stroke="#ABE0F0" stroke-width="2.14511" stroke-linecap="round"/>
<path d="M35.0336 51.7154C38.9398 51.894 40.1921 54.283 40.2398 55.7926C40.2874 57.3023 39.1284 60.323 34.1119 60.329C29.0954 60.335 28.1996 57.6307 28.2951 55.6059C28.3905 53.581 31.1274 51.5367 35.0336 51.7154Z" stroke="#ABE0F0" stroke-width="2.14511" stroke-linecap="round"/>
<path d="M37.3082 55.9148C36.191 55.4438 34.0866 54.5586 31.5976 56.1567" stroke="#ABE0F0" stroke-width="2.14511" stroke-linecap="round"/>
<path d="M49.6866 34.9186V43.4011M52.4577 37.6895V46.0589M55.2286 36.7847V44.6452" stroke="#ABE0F0" stroke-width="2.07996" stroke-linecap="round"/>
<path d="M28.6997 45.0094C28.8049 43.8066 29.3817 42.5222 30.5884 42.5618C31.8474 42.6031 32.3393 44.0934 32.2154 45.347C32.0934 46.5819 31.3618 47.9159 30.1325 47.7465C28.9373 47.5819 28.5945 46.2113 28.6997 45.0094Z" fill="#ABE0F0"/>
<path d="M37.9087 46.5442C38.0139 45.3415 38.5907 44.057 39.7974 44.0966C41.0564 44.138 41.5482 45.6283 41.4244 46.8819C41.3024 48.1167 40.5707 49.4507 39.3415 49.2814C38.1463 49.1167 37.8035 47.7462 37.9087 46.5442Z" fill="#ABE0F0"/>
</g>
<path d="M16.7866 15.9815C16.4999 16.7986 15.2153 19.1408 14.9154 19.8114" stroke="#ABE0F0" stroke-width="2.07996" stroke-linecap="round"/>
<path d="M17.1622 17.1948C17.2892 17.2054 17.6724 17.3921 18.2489 17.7004C18.7132 17.9487 19.728 18.6791 19.9821 18.8394" stroke="#ABE0F0" stroke-width="2.07996" stroke-linecap="round"/>
<path d="M14.5528 22.8095C14.5785 22.8095 14.6795 22.8095 15.4784 22.712C17.5266 22.4622 18.3178 22.712 21.4858 21.5137" stroke="#ABE0F0" stroke-width="2.07996" stroke-linecap="round"/>
<path d="M18.7616 23.3229C18.7486 23.3737 18.7501 23.8316 18.7826 24.6514C18.807 25.0395 18.9105 25.796 18.9427 26.0286" stroke="#ABE0F0" stroke-width="2.07996" stroke-linecap="round"/>
<path d="M22.8995 14.8588C23.1199 16.1958 24.2691 21.8006 24.3988 24.6266" stroke="#ABE0F0" stroke-width="2.07996" stroke-linecap="round"/>
<path d="M27.3648 15.7099C28.9377 15.8716 31.34 16.0652 35.0078 15.0814" stroke="#ABE0F0" stroke-width="2.07996" stroke-linecap="round"/>
<path d="M31.5442 16.7496C31.5208 17.3045 31.6345 18.9186 31.7973 19.5311" stroke="#ABE0F0" stroke-width="2.07996" stroke-linecap="round"/>
<path d="M34.6696 18.2853C34.8914 18.2418 35.478 18.095 36.3136 17.8855C36.4954 17.84 37.0444 17.6871 37.1224 17.6742" stroke="#ABE0F0" stroke-width="2.07996" stroke-linecap="round"/>
<path d="M37.1652 12.8704C37.91 15.5479 38.1939 17.513 38.3234 19.4581" stroke="#ABE0F0" stroke-width="2.07996" stroke-linecap="round"/>
<path d="M28.5253 11.109C28.2936 9.88324 28.9917 8.63262 30.2172 8.39958C31.4608 8.16308 32.6037 9.1171 32.792 10.369C32.985 11.6525 32.0922 12.9572 30.796 13.0267C29.637 13.0889 28.7409 12.2495 28.5253 11.109Z" stroke="#ABE0F0" stroke-width="2.07996" stroke-linecap="round"/>
<path d="M12.7618 28.6617C12.8317 29.3243 12.9735 30.8487 13.0485 32.1473C13.0893 32.8546 13.1655 33.4625 13.1999 34.2414C13.2079 34.4316 13.2214 34.567 13.2284 34.6848C13.2354 34.8025 13.2356 34.8987 13.275 35.1842" stroke="#ABE0F0" stroke-width="2.07996" stroke-linecap="round"/>
<path d="M13.9648 32.1526C13.9987 32.1254 14.5721 32.0352 15.5384 31.8886C15.9487 31.8182 16.5931 31.7076 16.7683 31.6718" stroke="#ABE0F0" stroke-width="2.07996" stroke-linecap="round"/>
<path d="M5.51169 33.1819C5.3857 32.0262 6.12469 31.0426 7.25444 30.7685C8.72412 30.412 10.191 31.8919 9.83532 33.3618C9.55517 34.5194 8.67826 35.3091 7.49757 35.1519C6.41473 35.0077 5.63008 34.2679 5.51169 33.1819Z" stroke="#ABE0F0" stroke-width="2.07996" stroke-linecap="round"/>
<path d="M44.1592 13.712C44.2857 14.9843 44.6244 15.877 44.6914 16.1076" stroke="#ABE0F0" stroke-width="2.07996" stroke-linecap="round"/>
<path d="M47.7575 13.727C47.3091 15.207 47.4425 15.6736 47.0489 16.2143" stroke="#ABE0F0" stroke-width="2.07996" stroke-linecap="round"/>
<path d="M42.0298 16.9515C42.0375 16.9523 42.0452 16.953 42.3992 16.8988C42.7531 16.8445 43.4531 16.7351 44.3734 16.654C45.2936 16.5729 46.413 16.5232 47.4228 16.534C48.4327 16.5448 49.2991 16.6176 50.1917 16.6925" stroke="#ABE0F0" stroke-width="2.07996" stroke-linecap="round"/>
<path d="M44.0744 10.2741C43.9274 9.30607 44.5144 8.45223 45.4553 8.18157C46.6794 7.82947 47.9661 9.0228 47.7189 10.2723C47.5242 11.2563 46.8143 11.9518 45.8152 11.8614C44.8989 11.7785 44.2124 11.1837 44.0744 10.2741Z" stroke="#ABE0F0" stroke-width="2.07996" stroke-linecap="round"/>
</svg>
